<?xml version="1.0" encoding="UTF-8" standalone="no"?>
<svg
   viewBox="0 -0.5 448 224"
   shape-rendering="crispEdges"
   version="1.1"
   id="svg47"
   sodipodi:docname="lisichka.svg"
   inkscape:version="1.2 (dc2aedaf03, 2022-05-15)"
   xmlns:inkscape="http://www.inkscape.org/namespaces/inkscape"
   xmlns:sodipodi="http://sodipodi.sourceforge.net/DTD/sodipodi-0.dtd"
   xmlns="http://www.w3.org/2000/svg"
   xmlns:svg="http://www.w3.org/2000/svg">
  <defs
     id="defs51" />
  <sodipodi:namedview
     id="namedview49"
     pagecolor="#ffffff"
     bordercolor="#000000"
     borderopacity="0.25"
     inkscape:showpageshadow="2"
     inkscape:pageopacity="0.0"
     inkscape:pagecheckerboard="0"
     inkscape:deskcolor="#d1d1d1"
     showgrid="false"
     inkscape:zoom="3.6339286"
     inkscape:cx="224"
     inkscape:cy="69.071253"
     inkscape:window-width="1920"
     inkscape:window-height="1017"
     inkscape:window-x="-8"
     inkscape:window-y="-8"
     inkscape:window-maximized="1"
     inkscape:current-layer="svg47" />
  <metadata
     id="metadata31">Made with Pixels to Svg https://codepen.io/shshaw/pen/XbxvNj</metadata>
  <path
     stroke="#2f2f2e"
     d="M18 17h2M50 17h2M82 17h2M114 17h2M146 17h2M178 17h2M210 17h2M242 17h2M274 17h2M306 17h2M17 18h1M19 18h1M22 18h3M49 18h1M51 18h1M54 18h3M81 18h1M83 18h1M86 18h3M113 18h1M115 18h1M118 18h3M145 18h1M147 18h1M150 18h3M177 18h1M179 18h1M182 18h3M209 18h1M211 18h1M214 18h3M241 18h1M243 18h1M246 18h3M273 18h1M275 18h1M278 18h3M305 18h1M307 18h1M310 18h3M16 19h1M19 19h1M21 19h1M24 19h1M48 19h1M51 19h1M53 19h1M56 19h1M80 19h1M83 19h1M85 19h1M88 19h1M112 19h1M115 19h1M117 19h1M120 19h1M144 19h1M147 19h1M149 19h1M152 19h1M176 19h1M179 19h1M181 19h1M184 19h1M208 19h1M211 19h1M213 19h1M216 19h1M240 19h1M243 19h1M245 19h1M248 19h1M272 19h1M275 19h1M277 19h1M280 19h1M304 19h1M307 19h1M309 19h1M312 19h1M6 20h2M16 20h1M19 20h5M41 20h1M48 20h1M51 20h5M80 20h1M83 20h5M112 20h1M115 20h5M144 20h1M147 20h5M166 20h2M176 20h1M179 20h5M201 20h1M208 20h1M211 20h5M240 20h1M243 20h5M272 20h1M275 20h5M304 20h1M307 20h5M6 21h1M8 21h3M16 21h1M23 21h1M40 21h1M42 21h1M48 21h1M55 21h1M72 21h1M80 21h1M87 21h1M112 21h1M119 21h1M144 21h1M151 21h1M166 21h1M168 21h3M176 21h1M183 21h1M200 21h1M202 21h1M208 21h1M215 21h1M232 21h1M240 21h1M247 21h1M272 21h1M279 21h1M304 21h1M311 21h1M6 22h1M11 22h1M16 22h1M20 22h1M24 22h1M39 22h1M42 22h1M48 22h1M52 22h1M56 22h1M71 22h1M73 22h1M80 22h1M84 22h1M88 22h1M112 22h1M116 22h1M120 22h1M137 22h3M144 22h1M148 22h1M152 22h1M166 22h1M171 22h1M176 22h1M180 22h1M184 22h1M199 22h1M202 22h1M208 22h1M212 22h1M216 22h1M231 22h1M233 22h1M240 22h1M244 22h1M248 22h1M272 22h1M276 22h1M280 22h1M297 22h3M304 22h1M308 22h1M312 22h1M7 23h1M12 23h1M15 23h1M23 23h3M39 23h1M42 23h1M47 23h1M55 23h3M70 23h1M73 23h1M79 23h1M87 23h3M105 23h3M111 23h1M119 23h3M136 23h1M140 23h1M143 23h1M151 23h3M167 23h1M172 23h1M175 23h1M183 23h3M199 23h1M202 23h1M207 23h1M215 23h3M230 23h1M233 23h1M239 23h1M247 23h3M265 23h3M271 23h1M279 23h3M296 23h1M300 23h1M303 23h1M311 23h3M8 24h1M13 24h1M15 24h1M25 24h1M39 24h1M43 24h1M47 24h1M57 24h1M70 24h1M73 24h3M79 24h1M89 24h1M103 24h2M108 24h1M111 24h1M121 24h1M135 24h1M141 24h1M143 24h1M153 24h1M168 24h1M173 24h1M175 24h1M185 24h1M199 24h1M203 24h1M207 24h1M217 24h1M230 24h1M233 24h3M239 24h1M249 24h1M263 24h2M268 24h1M271 24h1M281 24h1M295 24h1M301 24h1M303 24h1M313 24h1M8 25h1M13 25h5M23 25h2M39 25h1M44 25h6M55 25h2M70 25h1M76 25h6M87 25h2M101 25h2M108 25h6M119 25h2M134 25h1M141 25h5M151 25h2M168 25h1M173 25h5M183 25h2M199 25h1M204 25h6M215 25h2M230 25h1M236 25h6M247 25h2M261 25h2M268 25h6M279 25h2M294 25h1M301 25h5M311 25h2M9 26h1M12 26h1M18 26h5M39 26h1M44 26h1M50 26h5M70 26h1M76 26h1M82 26h5M100 26h1M108 26h1M114 26h5M134 26h1M137 26h2M140 26h1M146 26h5M169 26h1M172 26h1M178 26h5M199 26h1M204 26h1M210 26h5M230 26h1M236 26h1M242 26h5M260 26h1M268 26h1M274 26h5M294 26h1M297 26h2M300 26h1M306 26h5M10 27h2M22 27h1M40 27h1M43 27h1M54 27h1M71 27h1M75 27h1M86 27h1M100 27h8M118 27h1M134 27h1M136 27h1M139 27h1M150 27h1M170 27h2M182 27h1M200 27h1M203 27h1M214 27h1M231 27h1M235 27h1M246 27h1M260 27h8M278 27h1M294 27h1M296 27h1M299 27h1M310 27h1M11 28h1M21 28h2M41 28h3M53 28h2M72 28h4M85 28h2M107 28h1M117 28h2M134 28h2M139 28h1M149 28h2M171 28h1M181 28h2M201 28h3M213 28h2M232 28h4M245 28h2M267 28h1M277 28h2M294 28h2M299 28h1M309 28h2M11 29h1M13 29h4M18 29h3M22 29h1M43 29h1M45 29h4M50 29h3M54 29h1M75 29h1M77 29h4M82 29h3M86 29h1M107 29h1M109 29h4M114 29h3M118 29h1M139 29h1M141 29h4M146 29h3M150 29h1M171 29h1M173 29h4M178 29h3M182 29h1M203 29h1M205 29h4M210 29h3M214 29h1M235 29h1M237 29h4M242 29h3M246 29h1M267 29h1M269 29h4M274 29h3M278 29h1M299 29h1M301 29h4M306 29h3M310 29h1M11 30h1M13 30h1M15 30h2M18 30h1M20 30h1M22 30h1M43 30h1M45 30h1M47 30h2M50 30h1M52 30h1M54 30h1M75 30h1M77 30h1M79 30h2M82 30h1M84 30h1M86 30h1M107 30h1M109 30h1M111 30h2M114 30h1M116 30h1M118 30h1M139 30h1M141 30h1M143 30h2M146 30h1M148 30h1M150 30h1M171 30h1M173 30h1M175 30h2M178 30h1M180 30h1M182 30h1M203 30h1M205 30h1M207 30h2M210 30h1M212 30h1M214 30h1M235 30h1M237 30h1M239 30h2M242 30h1M244 30h1M246 30h1M267 30h1M269 30h1M271 30h2M274 30h1M276 30h1M278 30h1M299 30h1M301 30h1M303 30h2M306 30h1M308 30h1M310 30h1M11 31h2M14 31h1M17 31h2M21 31h2M43 31h2M46 31h1M49 31h2M53 31h2M75 31h2M78 31h1M81 31h2M85 31h2M107 31h2M110 31h1M113 31h2M117 31h2M139 31h2M142 31h1M145 31h2M149 31h2M171 31h2M174 31h1M177 31h2M181 31h2M203 31h2M206 31h1M209 31h2M213 31h2M235 31h2M238 31h1M241 31h2M245 31h2M267 31h2M270 31h1M273 31h2M277 31h2M299 31h2M302 31h1M305 31h2M309 31h2M18 49h2M51 49h2M85 49h2M117 49h2M149 49h2M181 49h2M213 49h2M245 49h2M277 49h2M309 49h2M341 49h2M371 49h2M402 49h2M434 49h2M17 50h1M19 50h1M22 50h3M50 50h1M52 50h1M55 50h3M80 50h3M85 50h1M87 50h1M112 50h3M116 50h1M119 50h1M144 50h3M148 50h1M151 50h1M176 50h3M180 50h1M183 50h1M208 50h3M212 50h1M215 50h1M240 50h3M244 50h1M247 50h1M272 50h3M276 50h1M279 50h1M304 50h3M308 50h1M311 50h1M336 50h3M341 50h1M343 50h1M370 50h1M372 50h1M375 50h3M401 50h1M403 50h1M406 50h3M433 50h1M435 50h1M438 50h3M16 51h1M19 51h1M21 51h1M24 51h1M49 51h1M52 51h1M54 51h1M57 51h1M80 51h1M83 51h1M85 51h1M88 51h1M112 51h1M115 51h1M117 51h1M120 51h1M144 51h1M147 51h1M149 51h1M152 51h1M176 51h1M179 51h1M181 51h1M184 51h1M208 51h1M211 51h1M213 51h1M216 51h1M240 51h1M243 51h1M245 51h1M248 51h1M272 51h1M275 51h1M277 51h1M280 51h1M304 51h1M307 51h1M309 51h1M312 51h1M336 51h1M339 51h1M341 51h1M344 51h1M369 51h1M372 51h1M374 51h1M377 51h1M400 51h1M403 51h1M405 51h1M408 51h1M432 51h1M435 51h1M437 51h1M440 51h1M6 52h2M16 52h1M19 52h5M41 52h1M49 52h1M51 52h6M81 52h6M88 52h1M113 52h5M120 52h1M145 52h5M152 52h1M166 52h2M177 52h5M184 52h1M201 52h1M209 52h5M216 52h1M241 52h5M248 52h1M273 52h5M280 52h1M294 52h2M305 52h5M312 52h1M329 52h1M337 52h6M344 52h1M369 52h1M371 52h6M400 52h1M403 52h5M432 52h1M435 52h5M6 53h1M8 53h3M16 53h1M23 53h1M40 53h1M42 53h1M49 53h1M56 53h1M72 53h1M81 53h1M88 53h1M113 53h1M120 53h1M145 53h1M152 53h1M166 53h1M168 53h3M177 53h1M184 53h1M200 53h1M202 53h1M209 53h1M216 53h1M232 53h1M241 53h1M248 53h1M273 53h1M280 53h1M294 53h1M296 53h3M305 53h1M312 53h1M328 53h1M330 53h1M337 53h1M344 53h1M360 53h1M369 53h1M376 53h1M400 53h1M407 53h1M432 53h1M439 53h1M6 54h1M11 54h1M16 54h1M20 54h1M24 54h1M39 54h1M42 54h1M49 54h1M51 54h1M55 54h2M71 54h1M73 54h1M81 54h2M86 54h1M88 54h1M112 54h1M116 54h1M120 54h1M137 54h3M144 54h1M148 54h1M152 54h1M166 54h1M171 54h1M176 54h1M180 54h1M184 54h1M199 54h1M202 54h1M208 54h1M212 54h1M216 54h1M231 54h1M233 54h1M240 54h1M244 54h1M248 54h1M265 54h3M272 54h1M276 54h1M280 54h1M294 54h1M299 54h1M304 54h1M308 54h1M312 54h1M327 54h1M330 54h1M337 54h2M342 54h1M344 54h1M359 54h1M361 54h1M369 54h1M371 54h1M375 54h2M400 54h1M404 54h1M408 54h1M425 54h3M432 54h1M436 54h1M440 54h1M7 55h1M12 55h1M15 55h1M23 55h3M39 55h1M42 55h1M48 55h1M53 55h2M57 55h1M70 55h1M73 55h1M80 55h1M83 55h2M89 55h1M105 55h3M111 55h3M121 55h1M136 55h1M140 55h1M143 55h3M153 55h1M167 55h1M172 55h1M175 55h3M185 55h1M199 55h1M202 55h1M207 55h3M217 55h1M230 55h1M233 55h1M239 55h3M249 55h1M264 55h1M268 55h1M271 55h3M281 55h1M295 55h1M300 55h1M303 55h3M313 55h1M327 55h1M330 55h1M336 55h1M339 55h2M345 55h1M358 55h1M361 55h1M368 55h1M373 55h2M377 55h1M393 55h3M399 55h1M407 55h3M424 55h1M428 55h1M431 55h1M439 55h3M8 56h1M13 56h1M15 56h1M25 56h1M39 56h1M43 56h1M48 56h1M57 56h1M70 56h1M73 56h3M80 56h1M89 56h1M103 56h2M108 56h1M111 56h1M121 56h1M135 56h1M141 56h1M143 56h1M153 56h1M168 56h1M173 56h1M175 56h1M185 56h1M199 56h1M203 56h1M207 56h1M217 56h1M230 56h1M233 56h3M239 56h1M249 56h1M263 56h1M269 56h1M271 56h1M281 56h1M296 56h1M301 56h1M303 56h1M313 56h1M327 56h1M331 56h1M336 56h1M345 56h1M358 56h1M361 56h3M368 56h1M377 56h1M391 56h2M396 56h1M399 56h1M409 56h1M423 56h1M429 56h1M431 56h1M441 56h1M8 57h1M13 57h5M23 57h2M39 57h1M44 57h6M56 57h1M70 57h1M76 57h6M88 57h1M101 57h2M108 57h6M119 57h2M134 57h1M141 57h5M151 57h2M168 57h1M173 57h5M183 57h2M199 57h1M204 57h6M215 57h2M230 57h1M236 57h6M247 57h2M262 57h1M269 57h5M279 57h2M296 57h1M301 57h5M311 57h2M327 57h1M332 57h6M344 57h1M358 57h1M364 57h6M376 57h1M389 57h2M396 57h6M407 57h2M422 57h1M429 57h5M439 57h2M9 58h1M12 58h1M18 58h5M39 58h1M44 58h1M50 58h6M70 58h1M76 58h1M82 58h6M100 58h1M108 58h1M114 58h5M134 58h1M137 58h2M140 58h1M146 58h5M169 58h1M172 58h1M178 58h5M199 58h1M204 58h1M210 58h5M230 58h1M236 58h1M242 58h5M262 58h1M265 58h2M268 58h1M274 58h5M297 58h1M300 58h1M306 58h5M327 58h1M332 58h1M338 58h6M358 58h1M364 58h1M370 58h6M388 58h1M396 58h1M402 58h5M422 58h1M425 58h2M428 58h1M434 58h5M10 59h2M22 59h1M40 59h1M43 59h1M54 59h1M71 59h1M75 59h1M86 59h1M100 59h8M118 59h1M134 59h1M136 59h1M139 59h1M150 59h1M170 59h2M182 59h1M200 59h1M203 59h1M214 59h1M231 59h1M235 59h1M246 59h1M262 59h1M264 59h1M267 59h1M278 59h1M298 59h2M310 59h1M328 59h1M331 59h1M342 59h1M359 59h1M363 59h1M374 59h1M388 59h8M406 59h1M422 59h1M424 59h1M427 59h1M438 59h1M11 60h1M21 60h2M41 60h3M53 60h2M72 60h4M85 60h2M107 60h1M117 60h2M134 60h2M139 60h1M149 60h2M171 60h1M181 60h2M201 60h3M213 60h2M232 60h4M245 60h2M262 60h2M267 60h1M277 60h2M299 60h1M309 60h2M329 60h3M341 60h2M360 60h4M373 60h2M395 60h1M405 60h2M422 60h2M427 60h1M437 60h2M11 61h1M13 61h4M18 61h3M22 61h1M43 61h1M45 61h4M50 61h3M54 61h1M75 61h1M77 61h4M82 61h3M86 61h1M107 61h1M109 61h4M114 61h3M118 61h1M139 61h1M141 61h4M146 61h3M150 61h1M171 61h1M173 61h4M178 61h3M182 61h1M203 61h1M205 61h4M210 61h3M214 61h1M235 61h1M237 61h4M242 61h3M246 61h1M267 61h1M269 61h4M274 61h3M278 61h1M299 61h1M301 61h4M306 61h3M310 61h1M331 61h1M333 61h4M338 61h3M342 61h1M363 61h1M365 61h4M370 61h3M374 61h1M395 61h1M397 61h4M402 61h3M406 61h1M427 61h1M429 61h4M434 61h3M438 61h1M11 62h1M13 62h1M15 62h2M18 62h1M20 62h1M22 62h1M43 62h1M45 62h1M47 62h2M50 62h1M52 62h1M54 62h1M75 62h1M77 62h1M79 62h2M82 62h1M84 62h1M86 62h1M107 62h1M109 62h1M111 62h2M114 62h1M116 62h1M118 62h1M139 62h1M141 62h1M143 62h2M146 62h1M148 62h1M150 62h1M171 62h1M173 62h1M175 62h2M178 62h1M180 62h1M182 62h1M203 62h1M205 62h1M207 62h2M210 62h1M212 62h1M214 62h1M235 62h1M237 62h1M239 62h2M242 62h1M244 62h1M246 62h1M267 62h1M269 62h1M271 62h2M274 62h1M276 62h1M278 62h1M299 62h1M301 62h1M303 62h2M306 62h1M308 62h1M310 62h1M331 62h1M333 62h1M335 62h2M338 62h1M340 62h1M342 62h1M363 62h1M365 62h1M367 62h2M370 62h1M372 62h1M374 62h1M395 62h1M397 62h1M399 62h2M402 62h1M404 62h1M406 62h1M427 62h1M429 62h1M431 62h2M434 62h1M436 62h1M438 62h1M11 63h2M14 63h1M17 63h2M21 63h2M43 63h2M46 63h1M49 63h2M53 63h2M75 63h2M78 63h1M81 63h2M85 63h2M107 63h2M110 63h1M113 63h2M117 63h2M139 63h2M142 63h1M145 63h2M149 63h2M171 63h2M174 63h1M177 63h2M181 63h2M203 63h2M206 63h1M209 63h2M213 63h2M235 63h2M238 63h1M241 63h2M245 63h2M267 63h2M270 63h1M273 63h2M277 63h2M299 63h2M302 63h1M305 63h2M309 63h2M331 63h2M334 63h1M337 63h2M341 63h2M363 63h2M366 63h1M369 63h2M373 63h2M395 63h2M398 63h1M401 63h2M405 63h2M427 63h2M430 63h1M433 63h2M437 63h2M81 80h3M86 80h3M114 80h2M209 80h3M214 80h3M18 81h2M49 81h3M54 81h3M80 81h1M84 81h2M88 81h1M113 81h1M115 81h1M118 81h3M177 81h3M182 81h3M208 81h1M212 81h2M216 81h1M241 81h3M246 81h3M17 82h1M19 82h1M22 82h3M48 82h1M52 82h2M56 82h1M80 82h1M83 82h5M112 82h1M115 82h1M117 82h1M120 82h1M146 82h2M176 82h1M180 82h2M184 82h1M208 82h1M211 82h5M240 82h1M244 82h2M248 82h1M16 83h1M19 83h1M21 83h1M24 83h1M41 83h1M48 83h1M51 83h5M72 83h1M80 83h1M87 83h1M112 83h1M115 83h5M145 83h1M147 83h1M150 83h3M176 83h1M179 83h5M199 83h4M208 83h1M215 83h1M240 83h1M243 83h5M7 84h2M16 84h1M19 84h5M40 84h1M42 84h1M48 84h1M55 84h1M71 84h1M73 84h1M80 84h1M84 84h1M88 84h1M112 84h1M119 84h1M144 84h1M147 84h1M149 84h1M152 84h1M176 84h1M183 84h1M199 84h1M203 84h1M208 84h1M212 84h1M216 84h1M230 84h5M240 84h1M247 84h1M7 85h1M9 85h2M16 85h1M23 85h1M39 85h1M42 85h1M48 85h1M52 85h1M56 85h1M70 85h1M73 85h1M79 85h1M87 85h3M112 85h1M116 85h1M120 85h1M144 85h1M147 85h5M168 85h3M176 85h1M180 85h1M184 85h1M200 85h1M204 85h1M207 85h1M215 85h3M230 85h1M235 85h1M240 85h1M244 85h1M248 85h1M7 86h1M11 86h1M16 86h1M20 86h1M24 86h1M39 86h1M42 86h1M47 86h1M55 86h3M70 86h1M73 86h3M79 86h1M89 86h1M102 86h1M105 86h3M111 86h1M119 86h3M144 86h1M151 86h1M167 86h1M171 86h1M175 86h1M183 86h3M200 86h1M205 86h1M207 86h1M217 86h1M231 86h1M236 86h1M239 86h1M247 86h3M7 87h1M12 87h1M15 87h1M23 87h3M39 87h1M43 87h1M47 87h1M57 87h1M70 87h1M76 87h6M87 87h2M101 87h1M103 87h2M108 87h1M111 87h1M121 87h1M133 87h7M144 87h1M148 87h1M152 87h1M166 87h1M172 87h1M175 87h1M185 87h1M201 87h1M205 87h5M215 87h2M232 87h1M237 87h1M239 87h1M249 87h1M8 88h1M13 88h1M15 88h1M25 88h1M39 88h1M44 88h6M55 88h2M70 88h1M76 88h1M82 88h5M101 88h1M108 88h6M119 88h2M133 88h1M140 88h1M143 88h1M151 88h3M166 88h1M168 88h1M173 88h5M183 88h2M201 88h1M204 88h1M210 88h5M232 88h1M237 88h5M247 88h2M8 89h1M13 89h5M23 89h2M39 89h1M44 89h1M50 89h5M71 89h1M75 89h1M86 89h1M101 89h1M108 89h1M114 89h5M134 89h1M141 89h1M143 89h1M153 89h1M166 89h2M169 89h1M172 89h1M178 89h5M202 89h2M209 89h2M214 89h1M233 89h1M236 89h1M242 89h5M9 90h1M12 90h1M18 90h5M40 90h1M43 90h1M54 90h2M72 90h4M79 90h2M85 90h1M87 90h1M102 90h6M118 90h2M135 90h1M141 90h5M151 90h2M170 90h2M177 90h2M182 90h1M201 90h1M211 90h1M213 90h1M234 90h2M241 90h2M246 90h1M10 91h2M22 91h1M41 91h3M47 91h2M53 91h1M55 91h1M76 91h1M78 91h1M82 91h4M87 91h1M107 91h1M111 91h2M117 91h1M119 91h1M136 91h3M140 91h1M146 91h5M169 91h1M179 91h1M181 91h1M201 91h10M212 91h1M233 91h1M243 91h1M245 91h1M11 92h1M21 92h2M44 92h1M46 92h1M50 92h4M55 92h1M76 92h1M78 92h4M86 92h2M108 92h1M110 92h1M114 92h4M119 92h1M139 92h1M150 92h1M169 92h9M179 92h2M206 92h1M208 92h1M211 92h2M233 92h9M243 92h2M11 93h1M13 93h4M18 93h3M22 93h1M44 93h1M46 93h4M54 93h1M76 93h2M108 93h1M110 93h4M118 93h1M139 93h1M149 93h2M174 93h1M176 93h1M178 93h2M207 93h2M238 93h1M240 93h1M242 93h2M11 94h1M13 94h1M15 94h2M18 94h1M20 94h1M22 94h1M44 94h2M108 94h2M139 94h1M141 94h1M143 94h2M146 94h3M150 94h1M175 94h2M239 94h2M11 95h2M14 95h1M17 95h2M21 95h2M139 95h2M142 95h2M145 95h2M149 95h2M146 110h2M145 111h1M147 111h1M150 111h3M114 112h2M144 112h1M147 112h1M149 112h1M152 112h1M18 113h2M113 113h1M115 113h1M118 113h3M144 113h1M147 113h5M17 114h1M19 114h1M22 114h3M112 114h1M115 114h1M117 114h1M120 114h1M144 114h1M151 114h1M178 114h2M338 114h2M16 115h1M19 115h1M21 115h1M24 115h1M50 115h2M112 115h1M115 115h5M144 115h1M148 115h1M152 115h1M177 115h1M179 115h1M182 115h3M306 115h2M337 115h1M339 115h1M342 115h3M6 116h2M16 116h1M19 116h5M41 116h1M49 116h1M51 116h1M54 116h3M112 116h1M119 116h1M143 116h1M151 116h3M176 116h1M179 116h1M181 116h1M184 116h1M201 116h1M210 116h2M262 116h2M274 116h2M305 116h1M307 116h1M310 116h3M326 116h2M336 116h1M339 116h1M341 116h1M344 116h1M6 117h1M8 117h3M16 117h1M23 117h1M40 117h1M42 117h1M48 117h1M51 117h1M53 117h1M56 117h1M72 117h1M82 117h2M112 117h1M116 117h1M120 117h1M137 117h7M153 117h1M166 117h6M176 117h1M179 117h5M200 117h1M202 117h1M209 117h1M211 117h1M214 117h3M233 117h1M242 117h2M262 117h1M264 117h1M273 117h1M275 117h1M278 117h3M294 117h2M304 117h1M307 117h1M309 117h1M312 117h1M326 117h1M328 117h3M336 117h1M339 117h5M6 118h1M11 118h1M16 118h1M20 118h1M24 118h1M39 118h1M42 118h1M48 118h1M51 118h5M71 118h1M73 118h1M81 118h1M83 118h1M86 118h3M111 118h1M119 118h3M135 118h2M140 118h1M144 118h2M151 118h2M165 118h1M172 118h1M176 118h1M183 118h1M199 118h1M202 118h1M208 118h1M211 118h1M213 118h1M216 118h1M232 118h1M234 118h1M241 118h1M243 118h1M246 118h3M262 118h1M265 118h1M272 118h1M275 118h1M277 118h1M280 118h1M294 118h1M296 118h1M304 118h1M307 118h5M326 118h1M331 118h1M336 118h1M343 118h1M7 119h1M12 119h1M15 119h1M23 119h3M39 119h1M42 119h1M48 119h1M55 119h1M70 119h1M73 119h1M80 119h1M83 119h1M85 119h1M88 119h1M111 119h1M121 119h1M133 119h2M139 119h1M146 119h7M165 119h3M173 119h4M180 119h1M184 119h1M199 119h1M202 119h1M208 119h1M211 119h5M231 119h1M234 119h1M240 119h1M243 119h1M245 119h1M248 119h1M262 119h1M266 119h1M272 119h1M275 119h5M294 119h1M297 119h1M304 119h1M311 119h1M327 119h1M332 119h1M336 119h1M343 119h1M8 120h1M13 120h1M15 120h1M25 120h1M39 120h1M43 120h1M48 120h1M52 120h1M56 120h1M70 120h1M73 120h3M80 120h1M83 120h5M111 120h3M119 120h2M132 120h1M138 120h1M149 120h1M152 120h1M168 120h2M172 120h1M175 120h1M183 120h3M199 120h1M203 120h1M208 120h1M215 120h1M231 120h1M234 120h1M240 120h1M243 120h5M263 120h1M267 120h1M272 120h1M279 120h1M294 120h1M298 120h1M304 120h1M311 120h1M328 120h1M333 120h1M335 120h1M340 120h1M344 120h1M8 121h1M13 121h5M23 121h2M39 121h1M44 121h4M55 121h3M70 121h1M76 121h5M87 121h1M105 121h3M110 121h1M114 121h5M132 121h20M170 121h2M175 121h1M185 121h1M199 121h1M204 121h5M215 121h1M231 121h1M235 121h1M237 121h4M247 121h1M263 121h1M268 121h5M279 121h1M294 121h1M299 121h5M308 121h1M312 121h1M328 121h1M333 121h3M343 121h2M9 122h1M12 122h1M18 122h5M39 122h1M44 122h1M47 122h1M57 122h1M70 122h1M76 122h1M80 122h1M84 122h1M88 122h1M103 122h2M108 122h2M115 122h2M118 122h3M170 122h1M176 122h4M183 122h2M199 122h1M204 122h1M207 122h1M212 122h1M216 122h1M231 122h1M236 122h1M239 122h2M247 122h1M263 122h1M268 122h1M271 122h1M276 122h1M280 122h1M295 122h1M300 122h1M303 122h1M311 122h2M329 122h1M332 122h1M336 122h2M343 122h2M10 123h2M22 123h1M40 123h1M43 123h1M48 123h2M55 123h2M71 123h1M75 123h1M79 123h1M87 123h3M101 123h2M108 123h1M117 123h1M120 123h1M171 123h4M180 123h4M200 123h1M203 123h1M207 123h1M215 123h2M231 123h1M236 123h1M239 123h1M244 123h1M248 123h1M264 123h1M267 123h1M271 123h1M279 123h2M295 123h1M299 123h1M304 123h2M311 123h2M330 123h2M338 123h5M11 124h1M21 124h2M41 124h3M50 124h5M72 124h4M79 124h1M89 124h1M100 124h1M107 124h1M113 124h7M175 124h4M181 124h1M184 124h1M201 124h3M208 124h2M215 124h2M232 124h1M235 124h1M239 124h1M247 124h2M265 124h3M272 124h2M279 124h2M296 124h4M306 124h6M331 124h1M341 124h2M11 125h1M13 125h4M18 125h3M22 125h1M43 125h1M45 125h4M53 125h2M75 125h1M77 125h5M87 125h2M100 125h7M111 125h2M115 125h1M179 125h6M203 125h1M205 125h4M210 125h6M233 125h3M240 125h2M247 125h2M267 125h1M269 125h4M274 125h6M299 125h1M301 125h4M306 125h1M310 125h2M331 125h1M333 125h4M338 125h3M342 125h1M11 126h1M13 126h1M15 126h2M18 126h1M20 126h1M22 126h1M43 126h1M45 126h1M47 126h2M50 126h3M54 126h1M75 126h1M77 126h1M79 126h2M82 126h5M107 126h4M113 126h2M202 126h1M204 126h1M206 126h4M212 126h2M216 126h1M234 126h1M236 126h5M242 126h8M266 126h1M268 126h1M270 126h4M276 126h2M280 126h1M298 126h1M300 126h1M302 126h4M308 126h2M312 126h1M331 126h1M333 126h1M335 126h2M338 126h1M340 126h1M342 126h1M11 127h2M14 127h1M17 127h2M21 127h2M43 127h2M46 127h1M49 127h2M53 127h2M75 127h2M78 127h1M81 127h2M85 127h2M202 127h4M210 127h2M214 127h3M235 127h4M241 127h4M246 127h4M266 127h4M274 127h2M278 127h3M298 127h4M306 127h2M310 127h3M331 127h2M334 127h1M337 127h2M341 127h2M100 144h2M18 145h2M100 145h1M102 145h1M104 145h2M146 145h2M17 146h1M19 146h1M22 146h3M50 146h2M54 146h2M101 146h1M103 146h1M105 146h1M114 146h2M135 146h1M137 146h2M145 146h1M147 146h1M150 146h3M16 147h1M19 147h1M21 147h1M24 147h1M49 147h1M51 147h1M53 147h1M55 147h1M100 147h2M106 147h1M113 147h1M115 147h1M118 147h3M134 147h1M136 147h1M138 147h1M144 147h1M147 147h1M149 147h1M152 147h1M6 148h2M16 148h1M19 148h5M48 148h1M51 148h2M55 148h1M82 148h2M86 148h2M100 148h1M106 148h1M112 148h1M115 148h1M117 148h1M120 148h1M133 148h1M138 148h1M144 148h1M147 148h5M6 149h1M8 149h3M16 149h1M23 149h1M38 149h2M48 149h1M51 149h5M70 149h3M81 149h1M83 149h1M85 149h1M87 149h1M101 149h1M107 149h1M112 149h1M115 149h5M134 149h1M138 149h1M144 149h1M151 149h1M6 150h1M11 150h1M16 150h1M24 150h1M38 150h1M40 150h3M48 150h1M55 150h1M70 150h1M73 150h3M80 150h1M83 150h2M87 150h1M102 150h1M107 150h1M112 150h1M119 150h1M134 150h1M139 150h1M144 150h1M152 150h1M7 151h1M12 151h1M15 151h1M23 151h3M38 151h1M43 151h2M48 151h1M56 151h1M70 151h1M76 151h1M80 151h1M83 151h5M103 151h1M107 151h1M112 151h1M120 151h1M135 151h1M140 151h1M143 151h1M151 151h3M8 152h1M13 152h1M15 152h1M20 152h5M39 152h1M45 152h1M47 152h1M55 152h3M70 152h1M76 152h1M80 152h1M87 152h1M104 152h1M108 152h1M111 152h1M119 152h3M136 152h1M141 152h1M143 152h1M148 152h5M8 153h1M13 153h5M25 153h1M39 153h1M45 153h1M47 153h1M52 153h5M70 153h1M77 153h1M80 153h1M88 153h1M105 153h1M109 153h3M116 153h5M137 153h1M141 153h5M153 153h1M9 154h1M12 154h1M18 154h7M40 154h1M45 154h5M57 154h1M71 154h1M77 154h3M87 154h3M106 154h1M108 154h1M112 154h2M121 154h1M137 154h1M140 154h1M146 154h7M10 155h2M22 155h1M40 155h1M44 155h1M50 155h7M72 155h3M76 155h1M79 155h1M84 155h5M107 155h1M114 155h7M138 155h2M150 155h1M11 156h1M21 156h2M41 156h3M54 156h1M75 156h1M80 156h2M89 156h1M107 156h1M117 156h2M139 156h1M149 156h2M11 157h1M13 157h4M18 157h3M22 157h1M43 157h1M53 157h2M74 157h1M82 157h7M107 157h1M109 157h4M114 157h3M118 157h1M139 157h1M141 157h4M146 157h3M150 157h1M11 158h1M13 158h1M15 158h2M18 158h1M20 158h1M22 158h1M43 158h1M45 158h1M47 158h2M50 158h3M54 158h1M74 158h1M76 158h1M78 158h4M83 158h3M87 158h1M107 158h1M109 158h1M111 158h2M114 158h1M116 158h1M118 158h1M139 158h1M141 158h1M143 158h2M146 158h1M148 158h1M150 158h1M11 159h2M14 159h1M17 159h2M21 159h2M43 159h2M46 159h1M49 159h2M53 159h2M74 159h2M77 159h2M82 159h2M86 159h2M107 159h2M110 159h1M113 159h2M117 159h2M139 159h2M142 159h1M145 159h2M149 159h2M21 181h2M53 181h2M85 181h2M117 181h2M149 181h2M181 181h2M16 182h3M20 182h1M23 182h1M48 182h3M52 182h1M55 182h1M80 182h3M84 182h1M87 182h1M112 182h3M116 182h1M119 182h1M144 182h3M148 182h1M151 182h1M176 182h3M180 182h1M183 182h1M16 183h1M19 183h1M21 183h1M24 183h1M48 183h1M51 183h1M53 183h1M56 183h1M80 183h1M83 183h1M85 183h1M88 183h1M112 183h1M115 183h1M117 183h1M120 183h1M144 183h1M147 183h1M149 183h1M152 183h1M176 183h1M179 183h1M181 183h1M184 183h1M17 184h5M24 184h1M46 184h8M56 184h1M76 184h10M88 184h1M108 184h10M120 184h1M141 184h9M152 184h1M177 184h5M184 184h1M11 185h7M24 185h1M43 185h3M49 185h1M56 185h1M75 185h1M81 185h1M88 185h1M107 185h1M113 185h1M120 185h1M139 185h2M144 185h2M152 185h1M172 185h6M184 185h1M10 186h1M16 186h1M20 186h2M24 186h1M42 186h1M48 186h1M52 186h2M56 186h1M74 186h1M80 186h1M84 186h2M88 186h1M106 186h1M112 186h1M116 186h2M120 186h1M138 186h1M144 186h1M148 186h2M152 186h1M170 186h2M176 186h1M180 186h2M184 186h1M9 187h3M15 187h3M25 187h1M41 187h3M47 187h3M57 187h1M73 187h3M79 187h3M89 187h1M105 187h3M111 187h3M121 187h1M137 187h3M143 187h3M153 187h1M169 187h3M175 187h3M185 187h1M8 188h1M12 188h4M25 188h1M40 188h1M44 188h4M57 188h1M72 188h1M76 188h4M89 188h1M104 188h1M108 188h4M121 188h1M136 188h1M140 188h4M153 188h1M168 188h1M172 188h4M185 188h1M8 189h1M15 189h8M24 189h1M40 189h1M47 189h8M56 189h1M72 189h1M79 189h8M88 189h1M104 189h1M111 189h8M120 189h1M136 189h1M143 189h8M152 189h1M168 189h1M175 189h8M184 189h1M8 190h1M16 190h1M19 190h1M23 190h1M40 190h1M48 190h1M51 190h1M55 190h1M72 190h1M80 190h1M83 190h1M87 190h1M104 190h1M112 190h1M115 190h1M119 190h1M136 190h1M144 190h1M147 190h1M151 190h1M168 190h1M176 190h1M179 190h1M183 190h1M9 191h15M41 191h15M73 191h15M105 191h15M137 191h15M169 191h15M18 209h2M17 210h1M19 210h1M22 210h3M50 210h2M54 210h2M16 211h1M19 211h1M21 211h1M24 211h1M49 211h1M51 211h1M53 211h1M55 211h1M6 212h2M16 212h1M19 212h5M48 212h1M51 212h2M55 212h1M82 212h2M86 212h2M6 213h1M8 213h3M16 213h1M23 213h1M38 213h2M48 213h1M51 213h5M70 213h3M81 213h1M83 213h1M85 213h1M87 213h1M114 213h2M118 213h2M146 213h2M150 213h2M178 213h2M182 213h2M210 213h2M214 213h2M6 214h1M11 214h1M16 214h1M24 214h1M38 214h1M40 214h3M48 214h1M55 214h1M70 214h1M73 214h3M80 214h1M83 214h2M87 214h1M113 214h1M115 214h1M117 214h1M119 214h1M145 214h1M147 214h1M149 214h1M151 214h1M177 214h1M179 214h1M181 214h1M183 214h1M209 214h1M211 214h1M213 214h1M215 214h1M7 215h1M12 215h1M15 215h1M23 215h3M38 215h1M43 215h2M48 215h1M56 215h1M70 215h1M76 215h1M80 215h1M83 215h5M102 215h2M112 215h1M115 215h2M119 215h1M144 215h1M147 215h2M151 215h1M176 215h1M179 215h2M183 215h1M208 215h1M211 215h2M215 215h1M8 216h1M13 216h1M15 216h1M20 216h5M39 216h1M45 216h1M47 216h1M55 216h3M70 216h1M76 216h1M80 216h1M87 216h1M102 216h1M104 216h2M112 216h1M115 216h5M133 216h2M144 216h1M147 216h5M176 216h1M179 216h5M208 216h1M211 216h5M8 217h1M13 217h5M25 217h1M39 217h1M45 217h1M47 217h1M52 217h5M70 217h1M77 217h1M80 217h1M88 217h1M102 217h1M106 217h1M112 217h1M119 217h1M133 217h1M135 217h2M144 217h1M151 217h1M176 217h1M183 217h1M208 217h1M215 217h1M9 218h1M12 218h1M18 218h7M40 218h1M45 218h5M57 218h1M71 218h1M77 218h3M87 218h3M102 218h1M107 218h1M112 218h1M120 218h1M133 218h1M137 218h2M144 218h1M152 218h1M164 218h5M176 218h1M184 218h1M208 218h1M216 218h1M10 219h2M22 219h1M40 219h1M44 219h1M50 219h7M72 219h3M76 219h1M79 219h1M84 219h5M103 219h1M108 219h4M119 219h3M133 219h1M139 219h5M151 219h3M164 219h1M169 219h7M183 219h3M200 219h8M215 219h3M11 220h1M21 220h2M41 220h3M54 220h1M75 220h1M80 220h2M89 220h1M104 220h1M107 220h1M116 220h5M134 220h1M139 220h1M148 220h5M165 220h1M171 220h1M180 220h5M198 220h2M203 220h1M212 220h5M11 221h1M13 221h4M18 221h3M22 221h1M43 221h1M53 221h2M74 221h1M82 221h7M105 221h2M112 221h5M121 221h1M135 221h1M137 221h2M144 221h5M153 221h1M166 221h1M169 221h2M176 221h5M185 221h1M197 221h1M201 221h2M208 221h5M217 221h1M11 222h1M13 222h1M15 222h2M18 222h1M20 222h1M22 222h1M43 222h1M45 222h1M47 222h2M50 222h3M54 222h1M74 222h1M76 222h1M78 222h4M83 222h3M87 222h1M104 222h1M117 222h5M136 222h1M149 222h5M167 222h2M181 222h5M196 222h1M200 222h1M213 222h5M11 223h2M14 223h1M17 223h2M21 223h2M43 223h2M46 223h1M49 223h2M53 223h2M74 223h2M77 223h2M82 223h2M86 223h2M104 223h18M136 223h18M168 223h18M196 223h22"
     id="path33" />
  <path
     stroke="#9d5021"
     d="M18 18h1M50 18h1M82 18h1M114 18h1M146 18h1M178 18h1M210 18h1M242 18h1M274 18h1M306 18h1M17 19h1M22 19h1M49 19h1M54 19h1M81 19h1M86 19h1M113 19h1M118 19h1M145 19h1M150 19h1M177 19h1M182 19h1M209 19h1M214 19h1M241 19h1M246 19h1M273 19h1M278 19h1M305 19h1M310 19h1M17 20h1M49 20h1M81 20h1M113 20h1M145 20h1M177 20h1M209 20h1M241 20h1M273 20h1M305 20h1M17 21h2M49 21h2M81 21h2M113 21h2M145 21h2M177 21h2M209 21h2M241 21h2M273 21h2M305 21h2M17 22h2M21 22h3M49 22h2M53 22h3M81 22h2M85 22h3M113 22h2M117 22h3M145 22h2M149 22h3M177 22h2M181 22h3M209 22h2M213 22h3M241 22h2M245 22h3M273 22h2M277 22h3M305 22h2M309 22h3M9 23h1M16 23h3M40 23h1M48 23h3M80 23h3M112 23h3M144 23h3M169 23h1M176 23h3M200 23h1M208 23h3M240 23h3M272 23h3M304 23h3M9 24h1M40 24h1M71 24h1M169 24h1M200 24h1M231 24h1M9 25h2M40 25h1M71 25h2M104 25h1M137 25h2M169 25h2M200 25h1M231 25h2M264 25h1M297 25h2M10 26h2M13 26h5M40 26h1M43 26h1M45 26h5M71 26h2M75 26h1M77 26h5M104 26h4M109 26h5M139 26h1M141 26h5M170 26h2M173 26h5M200 26h1M203 26h1M205 26h5M231 26h2M235 26h1M237 26h5M264 26h4M269 26h5M299 26h1M301 26h5M12 27h4M41 27h2M44 27h4M72 27h3M76 27h4M108 27h4M140 27h4M172 27h4M201 27h2M204 27h4M232 27h3M236 27h4M268 27h4M300 27h4M12 28h3M18 28h1M44 28h3M50 28h1M76 28h3M82 28h1M108 28h3M114 28h1M140 28h3M146 28h1M172 28h3M178 28h1M204 28h3M210 28h1M236 28h3M242 28h1M268 28h3M274 28h1M300 28h3M306 28h1M12 29h1M21 29h1M44 29h1M53 29h1M76 29h1M85 29h1M108 29h1M117 29h1M140 29h1M149 29h1M172 29h1M181 29h1M204 29h1M213 29h1M236 29h1M245 29h1M268 29h1M277 29h1M300 29h1M309 29h1M18 50h1M51 50h1M117 50h1M149 50h1M181 50h1M213 50h1M245 50h1M277 50h1M309 50h1M371 50h1M402 50h1M434 50h1M17 51h1M22 51h1M50 51h1M55 51h1M81 51h1M113 51h1M145 51h1M177 51h1M209 51h1M241 51h1M273 51h1M305 51h1M337 51h1M370 51h1M375 51h1M401 51h1M406 51h1M433 51h1M438 51h1M17 52h1M50 52h1M370 52h1M401 52h1M433 52h1M17 53h2M50 53h1M82 53h2M114 53h4M146 53h4M178 53h4M210 53h4M242 53h4M274 53h4M306 53h4M338 53h2M370 53h1M401 53h2M433 53h2M17 54h2M21 54h3M50 54h1M52 54h3M83 54h3M113 54h3M145 54h3M177 54h3M209 54h3M241 54h3M273 54h3M305 54h3M339 54h3M370 54h1M372 54h3M401 54h2M405 54h3M433 54h2M437 54h3M9 55h1M16 55h3M40 55h1M49 55h2M81 55h2M114 55h2M146 55h2M169 55h1M178 55h2M200 55h1M210 55h2M242 55h2M274 55h2M297 55h1M306 55h2M328 55h1M337 55h2M369 55h2M400 55h3M432 55h3M9 56h1M40 56h1M71 56h1M169 56h1M200 56h1M231 56h1M297 56h1M328 56h1M359 56h1M9 57h2M40 57h1M71 57h2M104 57h1M137 57h2M169 57h2M200 57h1M231 57h2M265 57h2M297 57h2M328 57h1M359 57h2M392 57h1M425 57h2M10 58h2M13 58h5M40 58h1M43 58h1M45 58h5M71 58h2M75 58h1M77 58h5M104 58h4M109 58h5M139 58h1M141 58h5M170 58h2M173 58h5M200 58h1M203 58h1M205 58h5M231 58h2M235 58h1M237 58h5M267 58h1M269 58h5M298 58h2M301 58h5M328 58h1M331 58h1M333 58h5M359 58h2M363 58h1M365 58h5M392 58h4M397 58h5M427 58h1M429 58h5M12 59h4M41 59h2M44 59h4M72 59h3M76 59h4M108 59h4M140 59h4M172 59h4M201 59h2M204 59h4M232 59h3M236 59h4M268 59h4M300 59h4M329 59h2M332 59h4M360 59h3M364 59h4M396 59h4M428 59h4M12 60h3M18 60h1M44 60h3M50 60h1M76 60h3M82 60h1M108 60h3M114 60h1M140 60h3M146 60h1M172 60h3M178 60h1M204 60h3M210 60h1M236 60h3M242 60h1M268 60h3M274 60h1M300 60h3M306 60h1M332 60h3M338 60h1M364 60h3M370 60h1M396 60h3M402 60h1M428 60h3M434 60h1M12 61h1M21 61h1M44 61h1M53 61h1M76 61h1M85 61h1M108 61h1M117 61h1M140 61h1M149 61h1M172 61h1M181 61h1M204 61h1M213 61h1M236 61h1M245 61h1M268 61h1M277 61h1M300 61h1M309 61h1M332 61h1M341 61h1M364 61h1M373 61h1M396 61h1M405 61h1M428 61h1M437 61h1M81 81h2M86 81h1M114 81h1M209 81h2M214 81h1M18 82h1M49 82h2M54 82h1M81 82h1M113 82h1M118 82h1M177 82h2M182 82h1M209 82h1M241 82h2M246 82h1M17 83h1M22 83h1M49 83h1M81 83h2M113 83h1M146 83h1M177 83h1M209 83h2M241 83h1M17 84h1M49 84h2M81 84h2M85 84h3M113 84h2M145 84h1M150 84h1M177 84h2M209 84h2M213 84h3M241 84h2M17 85h2M49 85h2M53 85h3M80 85h3M113 85h2M117 85h3M145 85h1M177 85h2M181 85h3M201 85h1M208 85h3M241 85h2M245 85h3M17 86h2M21 86h3M40 86h1M48 86h3M71 86h1M112 86h3M145 86h2M176 86h3M201 86h1M233 86h1M240 86h3M9 87h1M16 87h3M40 87h1M71 87h2M145 87h2M149 87h3M169 87h1M204 87h1M233 87h1M9 88h1M40 88h1M71 88h2M75 88h1M77 88h5M104 88h1M144 88h3M169 88h1M202 88h2M205 88h5M233 88h2M9 89h2M40 89h1M43 89h1M45 89h5M72 89h3M76 89h4M104 89h4M109 89h5M170 89h2M173 89h5M204 89h4M234 89h2M237 89h5M10 90h2M13 90h5M41 90h2M44 90h4M76 90h3M82 90h1M86 90h1M108 90h4M137 90h2M172 90h4M203 90h4M236 90h4M12 91h4M44 91h3M50 91h1M54 91h1M77 91h1M108 91h3M114 91h1M118 91h1M139 91h1M141 91h5M171 91h4M235 91h4M12 92h3M18 92h1M45 92h1M109 92h1M140 92h4M12 93h1M21 93h1M140 93h3M146 93h1M146 111h1M145 112h1M150 112h1M114 113h1M145 113h1M18 114h1M113 114h1M118 114h1M145 114h2M17 115h1M22 115h1M113 115h1M145 115h2M149 115h3M178 115h1M338 115h1M17 116h1M50 116h1M113 116h2M144 116h3M177 116h1M182 116h1M306 116h1M337 116h1M342 116h1M17 117h2M49 117h1M54 117h1M113 117h2M117 117h3M177 117h1M210 117h1M274 117h1M305 117h1M310 117h1M337 117h1M17 118h2M21 118h3M49 118h1M82 118h1M112 118h3M141 118h3M177 118h2M209 118h1M214 118h1M242 118h1M273 118h1M278 118h1M305 118h1M337 118h2M9 119h1M16 119h3M40 119h1M49 119h2M81 119h1M86 119h1M136 119h1M140 119h4M169 119h1M177 119h2M181 119h3M200 119h1M209 119h1M241 119h1M246 119h1M273 119h1M305 119h2M329 119h1M337 119h2M9 120h1M40 120h1M49 120h2M53 120h3M71 120h1M81 120h1M136 120h2M140 120h3M150 120h1M170 120h2M173 120h2M176 120h3M200 120h1M209 120h2M232 120h1M241 120h1M264 120h1M273 120h2M305 120h2M329 120h1M336 120h3M341 120h3M9 121h2M40 121h1M48 121h3M71 121h2M81 121h2M111 121h3M172 121h3M200 121h1M209 121h2M232 121h1M241 121h2M264 121h1M273 121h2M295 121h2M304 121h3M309 121h3M329 121h2M10 122h2M13 122h5M40 122h1M43 122h1M45 122h2M71 122h2M75 122h1M77 122h3M81 122h2M85 122h3M110 122h2M117 122h1M172 122h3M200 122h1M203 122h1M205 122h2M208 122h3M213 122h3M232 122h1M237 122h2M241 122h2M264 122h1M267 122h1M269 122h2M272 122h3M277 122h3M296 122h1M299 122h1M301 122h2M330 122h2M333 122h3M12 123h4M41 123h2M44 123h4M72 123h3M76 123h3M80 123h3M104 123h1M109 123h2M118 123h1M179 123h1M201 123h2M204 123h3M232 123h1M235 123h1M237 123h2M240 123h3M245 123h3M265 123h2M268 123h3M296 123h3M300 123h3M332 123h4M12 124h3M18 124h1M44 124h3M76 124h3M104 124h3M108 124h3M182 124h1M204 124h3M233 124h2M236 124h3M268 124h3M300 124h3M332 124h3M338 124h1M12 125h1M21 125h1M44 125h1M50 125h1M76 125h1M108 125h3M113 125h2M204 125h1M236 125h3M268 125h1M300 125h1M332 125h1M341 125h1M210 126h1M214 126h1M274 126h1M278 126h1M306 126h1M310 126h1M18 146h1M146 146h1M17 147h1M22 147h1M50 147h1M54 147h1M114 147h1M145 147h1M150 147h1M17 148h1M49 148h1M53 148h2M113 148h1M118 148h1M145 148h1M17 149h2M49 149h1M82 149h1M86 149h1M113 149h1M145 149h2M17 150h2M21 150h3M49 150h2M81 150h1M85 150h2M113 150h2M145 150h2M149 150h3M9 151h1M16 151h3M49 151h2M53 151h3M81 151h1M113 151h2M117 151h3M137 151h1M144 151h3M9 152h1M41 152h1M48 152h3M81 152h2M105 152h1M112 152h3M137 152h1M9 153h2M40 153h2M71 153h3M81 153h2M85 153h3M106 153h1M138 153h1M10 154h2M13 154h5M41 154h2M72 154h3M80 154h3M107 154h1M109 154h3M138 154h2M141 154h5M12 155h4M41 155h3M45 155h5M75 155h1M77 155h2M108 155h4M140 155h4M12 156h3M18 156h1M44 156h4M76 156h4M108 156h3M114 156h1M140 156h3M146 156h1M12 157h1M21 157h1M44 157h3M50 157h1M75 157h4M108 157h1M117 157h1M140 157h1M149 157h1M21 182h1M53 182h1M85 182h1M117 182h1M149 182h1M181 182h1M17 183h1M49 183h1M81 183h1M113 183h1M145 183h1M177 183h1M18 185h4M50 185h4M76 185h1M82 185h4M108 185h1M114 185h4M146 185h4M178 185h4M11 186h2M17 186h3M43 186h3M49 186h3M75 186h3M81 186h3M107 186h3M113 186h3M139 186h2M145 186h3M172 186h1M177 186h3M12 187h2M18 187h2M44 187h3M50 187h2M76 187h3M82 187h2M108 187h3M114 187h2M140 187h2M146 187h2M172 187h2M178 187h2M9 188h1M41 188h1M73 188h1M105 188h1M137 188h1M169 188h1M9 189h1M41 189h1M73 189h1M105 189h1M137 189h1M169 189h1M9 190h1M41 190h1M73 190h1M105 190h1M137 190h1M169 190h1M18 210h1M17 211h1M22 211h1M50 211h1M54 211h1M17 212h1M49 212h1M53 212h2M17 213h2M49 213h1M82 213h1M86 213h1M17 214h2M21 214h3M49 214h2M81 214h1M85 214h2M114 214h1M118 214h1M146 214h1M150 214h1M178 214h1M182 214h1M210 214h1M214 214h1M9 215h1M16 215h3M49 215h2M53 215h3M81 215h1M113 215h1M117 215h2M145 215h1M149 215h2M177 215h1M181 215h2M209 215h1M213 215h2M9 216h1M41 216h1M48 216h3M81 216h2M113 216h1M145 216h1M177 216h1M209 216h1M9 217h2M40 217h2M71 217h3M81 217h2M85 217h3M113 217h2M145 217h2M177 217h2M209 217h2M10 218h2M13 218h5M41 218h2M72 218h3M80 218h3M113 218h2M117 218h3M145 218h2M149 218h3M177 218h2M181 218h3M209 218h2M213 218h3M12 219h4M41 219h3M45 219h5M75 219h1M77 219h2M104 219h1M112 219h3M144 219h3M176 219h3M208 219h3M12 220h3M18 220h1M44 220h4M76 220h4M105 220h1M108 220h4M135 220h1M140 220h4M172 220h4M204 220h4M12 221h1M21 221h1M44 221h3M50 221h1M75 221h4M107 221h4M136 221h1M139 221h4M167 221h1M171 221h4M203 221h4M106 222h5M138 222h5M170 222h5M202 222h5"
     id="path35" />
  <path
     stroke="#ffffff"
     d="m 11.374604,0.88257223 h 1.025422 m 31.788057,0 h 1.025421 m 31.788057,0 h 1.025421 m 31.788058,0 h 1.02541 m 31.78807,0 h 1.02542 m 31.78805,0 h 1.02542 m 31.78806,0 h 1.02543 m 31.78805,0 h 1.02542 m 31.78805,0 h 1.02543 m 31.78806,0 h 1.02542 M 11.374604,1.972041 h 1.025422 m 31.788057,0 h 1.025421 m 31.788057,0 h 1.025421 m 31.788058,0 h 1.02541 m 31.78807,0 h 1.02542 m 31.78805,0 h 1.02542 m 31.78806,0 h 1.02543 m 31.78805,0 h 1.02542 m 31.78805,0 h 1.02543 m 31.78806,0 h 1.02542 M 1.1203931,4.1509786 h 2.0508424 m 31.7880565,0 h 1.025421 m 129.203067,0 h 2.05085 m 31.78805,0 h 1.02542 M 34.959292,5.2404473 h 1.025421 m 30.762635,0 h 1.025422 m 131.25391,0 h 1.02542 m 30.76264,0 h 1.02542 M 11.374604,6.3299161 h 7.177949 m 25.63553,0 h 7.177948 m 15.381317,0 h 1.025422 m 9.228791,0 h 7.177947 m 25.635532,0 h 7.17794 m 25.63554,0 h 7.17795 m 25.63552,0 h 7.17795 m 25.63553,0 h 7.17794 m 15.38133,0 h 1.02542 m 9.22879,0 h 7.17795 m 25.63552,0 h 7.17795 m 25.63554,0 h 7.17795 M 13.425447,7.4193849 h 3.076264 m 29.737214,0 h 3.076263 m 29.737215,0 h 3.076263 m 16.40674,0 h 1.02542 m 12.305054,0 h 3.07627 m 29.73721,0 h 3.07626 m 29.73722,0 h 3.07625 m 29.73722,0 h 3.07627 m 29.73721,0 h 3.07626 m 16.40674,0 h 1.02542 m 12.30506,0 h 3.07627 m 29.7372,0 h 3.07627 M 97.509984,8.5088537 h 2.050842 m 162.016554,0 h 2.05083 M 13.425447,9.5983225 h 2.050842 m 30.762636,0 h 2.050842 m 30.762636,0 h 2.050843 m 30.762634,0 h 2.05084 m 30.76264,0 h 2.05084 m 30.76264,0 h 2.05084 m 30.76263,0 h 2.05085 m 30.76263,0 h 2.05084 m 30.76264,0 h 2.05084 m 30.76263,0 h 2.05085 M 11.374604,35.745573 h 1.025422 m 32.813478,0 h 1.025421 m 34.864321,0 h 1.02542 m 31.788054,0 h 1.02543 m 31.78805,0 h 1.02542 m 31.78806,0 h 1.02541 m 31.78807,0 h 1.02542 m 31.78805,0 h 1.02542 m 31.78806,0 h 1.02543 m 31.78805,0 h 1.02542 m 31.78805,0 h 1.02543 m 28.71179,0 h 1.02542 m 30.76264,0 h 1.02542 m 31.78805,0 h 1.02543 M 11.374604,36.835042 h 1.025422 m 101.516694,0 h 1.02543 m 31.78805,0 h 1.02542 m 31.78806,0 h 1.02541 m 31.78807,0 h 1.02542 m 31.78805,0 h 1.02542 m 31.78806,0 h 1.02543 m 31.78805,0 h 1.02542 m 93.31333,0 h 1.02542 m 31.78805,0 h 1.02543 M 1.1203931,39.013979 h 2.0508424 m 31.7880565,0 h 1.025421 m 129.203067,0 h 2.05085 m 31.78805,0 h 1.02542 m 96.3896,0 h 2.05083 m 31.78806,0 h 1.02543 M 34.959292,40.103448 h 1.025421 m 30.762635,0 h 1.025422 m 131.25391,0 h 1.02542 m 30.76264,0 h 1.02542 m 98.44043,0 h 1.02543 m 30.76263,0 h 1.02542 M 11.374604,41.192917 h 7.177949 m 26.660951,0 h 6.152527 m 15.381317,0 h 1.025422 m 11.279633,0 h 5.127105 m 26.660942,0 h 6.15253 m 26.66096,0 h 6.15253 m 26.66094,0 h 6.15253 m 26.66096,0 h 6.15251 m 15.38133,0 h 1.02542 m 10.25421,0 h 6.15253 m 26.66095,0 h 6.15252 m 26.66096,0 h 6.15253 m 27.68637,0 h 5.1271 m 15.38132,0 h 1.02542 m 10.25421,0 h 6.15253 m 25.63553,0 h 7.17795 m 25.63552,0 h 7.17795 M 13.425447,42.282386 h 3.076264 m 28.711793,0 h 5.127106 m 29.737214,0 h 3.076263 m 15.381319,0 h 1.02542 m 12.305054,0 h 3.07627 m 29.73721,0 h 3.07626 m 29.73722,0 h 3.07625 m 29.73722,0 h 3.07627 m 29.73721,0 h 3.07626 m 29.73722,0 h 3.07627 m 29.7372,0 h 3.07627 m 30.76264,0 h 3.07626 m 27.68637,0 h 5.1271 m 15.38133,0 h 1.02542 m 12.30506,0 h 3.07625 m 29.73722,0 h 3.07626 M 97.509984,43.371855 h 2.050842 m 293.270454,0 h 2.05085 M 13.425447,44.461323 h 2.050842 m 30.762636,0 h 2.050842 m 30.762636,0 h 2.050843 m 30.762634,0 h 2.05084 m 30.76264,0 h 2.05084 m 30.76264,0 h 2.05084 m 30.76263,0 h 2.05085 m 30.76263,0 h 2.05084 m 30.76264,0 h 2.05084 m 30.76263,0 h 2.05085 m 30.76264,0 h 2.05083 m 30.76264,0 h 2.05085 m 30.76264,0 h 2.05083 m 30.76264,0 h 2.05085 M 77.001561,69.519105 h 1.025421 m 31.788058,0 h 1.02541 m 97.41502,0 h 1.02543 M 11.374604,70.608574 h 1.025422 m 31.788057,0 h 1.025421 m 64.601536,0 h 1.02541 m 64.60154,0 h 1.02542 m 64.60154,0 h 1.02542 M 11.374604,71.698043 h 1.025422 m 130.228494,0 h 1.02542 m 56.39816,0 h 1.02542 M 34.959292,72.787512 h 1.025421 m 30.762635,0 h 1.025422 m 74.85575,0 h 1.02542 m 88.18622,0 h 1.02541 M 2.1458143,73.87698 h 1.0254212 m 31.7880565,0 h 1.025421 m 30.762635,0 h 1.025422 m 9.228791,0 h 7.177947 m 81.008272,0 h 2.05085 m 41.01684,0 h 7.17794 M 44.188083,74.966449 h 7.177948 m 27.686372,0 h 3.076263 m 27.686374,0 h 7.17794 m 58.44901,0 h 7.17795 m 27.68637,0 h 3.07627 m 27.68637,0 h 7.17795 M 11.374604,76.055918 h 7.177949 m 27.686372,0 h 3.076263 m 49.220218,0 h 1.02542 m 12.305054,0 h 3.07627 m 16.40673,0 h 2.05085 m 44.09311,0 h 3.07625 m 62.5507,0 h 3.07626 M 13.425447,77.145387 h 3.076264 m 62.550692,0 h 2.050843 m 16.406738,0 h 2.050842 m 32.813484,0 h 2.05083 m 8.20338,0 h 7.17795 m 60.49984,0 h 2.05085 M 46.238925,78.234856 h 2.050842 m 63.576113,0 h 2.05084 m 30.76264,0 h 3.07626 m 29.73722,0 h 2.05084 m 63.57611,0 h 2.05084 M 13.425447,79.324324 h 2.050842 m 129.203071,1.089469 h 2.05084 m -4.10168,21.789377 h 1.02542 m -1.02542,1.08947 h 1.02542 m -33.8389,1.08947 h 1.02541 m -99.465846,1.08947 h 1.025422 m 97.415014,0 h 1.02541 m -99.465846,1.08946 h 1.025422 m 163.041964,0 h 1.02542 m 163.04197,0 h 1.02542 m -296.346717,1.08947 h 1.025421 m 97.415016,0 h 7.17795 m 25.63552,0 h 1.02542 m 130.2285,0 h 1.02542 m 31.78805,0 h 1.02542 M 1.1203931,108.73998 h 2.0508424 m 31.7880565,0 h 1.025421 m 8.20337,0 h 1.025421 m 99.465856,0 h 3.07626 m 16.40674,0 h 2.05084 m 32.81348,0 h 1.02542 m 8.20337,0 h 1.02543 m 54.34731,0 h 1.02543 m 9.22878,0 h 1.02543 m 31.78806,0 h 1.02542 m 21.53384,0 h 2.05085 m -296.346728,1.08947 h 1.025421 m 30.762635,0 h 1.025422 m 9.228791,0 h 1.025421 m 31.788058,0 h 7.17794 m 14.3559,0 h 1.02543 m 32.81347,0 h 1.02542 m 32.81348,0 h 1.02542 m 8.20337,0 h 1.02543 m 22.55926,0 h 1.02541 m 8.20338,0 h 1.02542 m 21.53384,0 h 1.02543 m 9.22878,0 h 1.02543 m 21.53385,0 h 1.02541 m -286.092506,1.08947 h 7.177949 m 48.194795,0 h 1.025422 m 9.228791,0 h 1.025421 m 33.838898,0 h 3.07627 m 15.38131,0 h 2.05085 m 99.46585,0 h 1.02541 m 8.20338,0 h 1.02542 m 54.34733,0 h 1.02541 m -284.041663,1.08947 h 3.076264 m 158.940279,0 h 7.17795 m 156.88944,0 h 5.12711 m -300.448407,1.08947 h 7.177948 m 126.126809,0 h 3.07625 m 126.12682,0 h 5.1271 m 29.73722,0 h 3.07626 m -331.211043,1.08947 h 2.050842 m 30.762636,0 h 3.076263 m 49.220218,0 h 1.02542 m 108.694644,0 h 5.12711 m 60.49984,0 h 5.12712 m 29.7372,0 h 3.07627 m -234.821449,1.08946 h 7.177947 m 13.330476,0 h 2.050842 m 110.745484,0 h 3.07627 m 27.68637,0 h 5.1271 m 29.73722,0 h 3.07627 m -199.957137,1.08947 h 3.076263 m 160.991124,0 h 3.07626 m 62.55069,0 h 2.05085 M 96.484563,138.15564 h 1.025421 m 0,1.08947 h 1.025422 m 1.02542,0 h 1.025424 m -89.211646,1.08947 h 1.025422 m 85.109958,0 h 4.101686 m 29.73721,0 h 1.02543 m 1.02542,0 h 1.02541 m 8.20338,0 h 1.02542 m -132.279336,1.08946 h 1.025422 m 31.788057,0 h 1.025421 m 54.347322,0 h 1.025424 m 9.22879,0 h 1.02541 m 21.53386,0 h 2.05083 m 8.20338,0 h 1.02542 m -99.465857,1.08947 h 1.025421 m 64.601536,0 h 1.02541 m 21.53386,0 h 2.05083 M 1.1203931,143.60298 h 2.0508424 m 10.2542115,0 h 1.025421 m 30.762636,0 h 2.050842 m 19.483002,0 h 1.025422 m 9.228791,0 h 1.025421 m 54.347328,0 h 2.05083 m 10.25422,0 h 1.02541 m -111.770899,1.08947 h 2.050842 m 9.228791,0 h 2.050842 m 19.483002,0 h 2.050843 m 8.20337,0 h 1.025421 m 33.838898,0 h 1.02542 m -101.516696,1.08947 h 2.050843 m 64.601535,0 h 2.050842 m 62.550696,0 h 2.05084 m -131.253913,1.08947 h 5.127106 m 25.63553,0 h 2.050842 m 31.788057,0 h 2.050842 m 29.737216,0 h 2.05084 m 32.81348,0 h 5.12711 m -103.567545,1.08947 h 5.127106 m 60.499849,0 h 5.1271 m -103.567533,1.08947 h 2.050842 m 61.525272,0 h 2.050842 m 65.626957,0 h 2.05084 m -100.491275,1.08946 h 2.050842 m 30.762636,0 h 5.127105 m -68.703219,29.41566 h 1.025422 m 31.788056,0 h 1.025421 m 31.788058,0 h 1.02542 m 31.788054,0 h 1.02543 m 31.78805,0 h 1.02542 m 31.78806,0 h 1.02541 m -165.092801,1.08947 h 1.025422 m 31.788056,0 h 1.025421 m 31.788058,0 h 1.02542 m 31.788054,0 h 1.02543 m 31.78805,0 h 1.02542 m 31.78806,0 h 1.02541 M 12.400026,185.0028 h 6.152527 m 26.660951,0 h 6.152527 m 26.660951,0 h 6.152526 m 26.660942,0 h 6.15253 m 26.66096,0 h 6.15253 m 26.66094,0 h 6.15253 M 5.2220779,186.09226 h 3.0762635 m 8.2033696,0 h 1.025421 m 20.508424,0 h 3.076263 m 8.203369,0 h 1.025422 m 20.508423,0 h 3.076264 m 8.203369,0 h 1.025421 m 20.508423,0 h 3.07626 m 8.20338,0 h 1.02542 m 20.50842,0 h 3.07627 m 8.20336,0 h 1.02542 m 20.50842,0 h 3.07627 m 8.20336,0 h 1.02543 M 6.247499,187.18173 h 3.0762635 m 29.7372145,0 h 3.076264 m 29.737214,0 h 3.076263 m 29.737222,0 h 3.07626 m 29.73721,0 h 3.07626 m 29.73722,0 h 3.07626 M 11.374604,210.06058 h 1.025422 m -1.025422,1.08947 h 1.025422 m 31.788057,0 h 1.025421 m -1.025421,1.08947 h 1.025421 m -44.0931109,1.08946 h 2.0508424 m 10.2542115,0 h 1.025421 m 30.762636,0 h 2.050842 m 19.483002,0 h 1.025422 m 9.228791,0 h 1.025421 m -44.093111,1.08947 h 2.050842 m 9.228791,0 h 2.050842 m 19.483002,0 h 2.050843 m 8.20337,0 h 1.025421 m 31.788058,0 h 1.02541 m 31.78807,0 h 1.02542 m 31.78805,0 h 1.02542 m 31.78806,0 h 1.02543 m -197.906296,1.08947 h 2.050843 m 64.601535,0 h 2.050842 m 29.737216,0 h 1.02541 m 31.78807,0 h 1.02542 m 31.78805,0 h 1.02542 m 31.78806,0 h 1.02543 m -195.855453,1.08947 h 5.127106 m 25.63553,0 h 2.050842 m 31.788057,0 h 2.050842 m 19.483002,0 h 2.050844 m 9.22878,0 h 2.05085 m 30.76264,0 h 2.05083 m 30.76264,0 h 2.05085 m 30.76264,0 h 2.05083 m -165.092805,1.08947 h 5.127106 m 59.474419,0 h 2.05085 m 18.45758,0 h 2.05085 m 10.25421,0 h 2.05083 m 30.76264,0 h 2.05085 m 30.76264,0 h 2.05083 m -197.906283,1.08947 h 2.050842 m 61.525272,0 h 2.050842 m 85.109957,0 h 2.05084 M 46.238925,219.8658 h 2.050842 m 30.762636,0 h 5.127105 m 25.635532,0 h 2.05084 m 30.76264,0 h 2.05084 m 30.76263,0 h 2.05085 m 20.50841,0 h 1.02543 m 9.22879,0 h 2.05084 m -97.41501,1.08947 h 4.10168 m 28.71179,0 h 4.1017 m 28.71179,0 h 4.10168 m 14.3559,0 h 1.02541 m 13.33048,0 h 4.10168"
     id="path37"
     style="stroke-width:1.05696" />
  <path
     stroke="#d67941"
     d="M23 19h1M55 19h1M87 19h1M119 19h1M151 19h1M183 19h1M215 19h1M247 19h1M279 19h1M311 19h1M19 21h4M51 21h4M83 21h4M115 21h4M147 21h4M179 21h4M211 21h4M243 21h4M275 21h4M307 21h4M10 22h1M19 22h1M51 22h1M83 22h1M115 22h1M147 22h1M170 22h1M179 22h1M211 22h1M243 22h1M275 22h1M307 22h1M10 23h2M19 23h4M51 23h4M83 23h4M115 23h4M137 23h3M147 23h4M170 23h2M179 23h4M211 23h4M243 23h4M275 23h4M297 23h3M307 23h4M10 24h3M41 24h2M105 24h3M136 24h5M170 24h3M201 24h2M265 24h3M296 24h5M11 25h2M41 25h3M73 25h3M105 25h3M139 25h2M171 25h2M201 25h3M233 25h3M265 25h3M299 25h2M41 26h2M73 26h2M201 26h2M233 26h2M16 27h4M48 27h4M80 27h4M112 27h4M144 27h4M176 27h4M208 27h4M240 27h4M272 27h4M304 27h4M15 28h3M47 28h3M79 28h3M111 28h3M143 28h3M175 28h3M207 28h3M239 28h3M271 28h3M303 28h3M17 29h1M49 29h1M81 29h1M113 29h1M145 29h1M177 29h1M209 29h1M241 29h1M273 29h1M305 29h1M86 50h1M118 50h1M150 50h1M182 50h1M214 50h1M246 50h1M278 50h1M310 50h1M342 50h1M23 51h1M56 51h1M82 51h1M87 51h1M114 51h1M119 51h1M146 51h1M151 51h1M178 51h1M183 51h1M210 51h1M215 51h1M242 51h1M247 51h1M274 51h1M279 51h1M306 51h1M311 51h1M338 51h1M343 51h1M376 51h1M407 51h1M439 51h1M87 52h1M119 52h1M151 52h1M183 52h1M215 52h1M247 52h1M279 52h1M311 52h1M343 52h1M19 53h4M51 53h5M84 53h4M118 53h2M150 53h2M182 53h2M214 53h2M246 53h2M278 53h2M310 53h2M340 53h4M371 53h5M403 53h4M435 53h4M10 54h1M19 54h1M87 54h1M117 54h3M149 54h3M170 54h1M181 54h3M213 54h3M245 54h3M277 54h3M298 54h1M309 54h3M343 54h1M403 54h1M435 54h1M10 55h2M19 55h4M51 55h2M55 55h2M85 55h4M116 55h5M137 55h3M148 55h5M170 55h2M180 55h5M212 55h5M244 55h5M265 55h3M276 55h5M298 55h2M308 55h5M341 55h4M371 55h2M375 55h2M403 55h4M425 55h3M435 55h4M10 56h3M41 56h2M105 56h3M136 56h5M170 56h3M201 56h2M264 56h5M298 56h3M329 56h2M393 56h3M424 56h5M11 57h2M41 57h3M73 57h3M105 57h3M139 57h2M171 57h2M201 57h3M233 57h3M267 57h2M299 57h2M329 57h3M361 57h3M393 57h3M427 57h2M41 58h2M73 58h2M201 58h2M233 58h2M329 58h2M361 58h2M16 59h4M48 59h4M80 59h4M112 59h4M144 59h4M176 59h4M208 59h4M240 59h4M272 59h4M304 59h4M336 59h4M368 59h4M400 59h4M432 59h4M15 60h3M47 60h3M79 60h3M111 60h3M143 60h3M175 60h3M207 60h3M239 60h3M271 60h3M303 60h3M335 60h3M367 60h3M399 60h3M431 60h3M17 61h1M49 61h1M81 61h1M113 61h1M145 61h1M177 61h1M209 61h1M241 61h1M273 61h1M305 61h1M337 61h1M369 61h1M401 61h1M433 61h1M83 81h1M87 81h1M211 81h1M215 81h1M51 82h1M55 82h1M119 82h1M179 82h1M183 82h1M243 82h1M247 82h1M23 83h1M83 83h4M211 83h4M51 84h4M83 84h1M115 84h4M151 84h1M179 84h4M211 84h1M243 84h4M19 85h4M51 85h1M83 85h4M115 85h1M179 85h1M202 85h2M211 85h4M234 85h1M243 85h1M10 86h1M19 86h1M51 86h4M115 86h4M147 86h4M170 86h1M179 86h4M202 86h3M234 86h2M243 86h4M10 87h2M19 87h4M41 87h2M73 87h3M105 87h3M147 87h1M170 87h2M202 87h2M234 87h3M10 88h3M41 88h3M73 88h2M105 88h3M137 88h3M147 88h4M170 88h3M235 88h2M11 89h2M41 89h2M80 89h4M138 89h3M208 89h1M211 89h1M48 90h4M81 90h1M112 90h4M139 90h2M176 90h1M179 90h1M207 90h4M240 90h1M243 90h1M16 91h4M49 91h1M80 91h2M113 91h1M175 91h4M239 91h4M15 92h3M48 92h2M112 92h2M144 92h4M17 93h1M143 93h3M151 112h1M119 114h1M147 114h4M23 115h1M147 115h1M115 116h4M147 116h4M183 116h1M343 116h1M19 117h4M55 117h1M115 117h1M311 117h1M10 118h1M19 118h1M115 118h4M137 118h3M169 118h3M179 118h4M215 118h1M279 118h1M330 118h1M339 118h4M10 119h2M19 119h4M51 119h4M87 119h1M137 119h2M144 119h2M170 119h3M179 119h1M247 119h1M265 119h1M307 119h4M330 119h2M339 119h4M10 120h3M41 120h2M51 120h1M143 120h5M179 120h4M201 120h2M211 120h4M265 120h2M275 120h4M297 120h1M307 120h4M330 120h3M339 120h1M11 121h2M41 121h3M51 121h4M73 121h3M83 121h4M201 121h3M211 121h4M233 121h2M243 121h4M265 121h3M275 121h4M297 121h2M307 121h1M331 121h2M41 122h2M73 122h2M83 122h1M105 122h3M112 122h3M175 122h1M201 122h2M211 122h1M233 122h3M243 122h4M265 122h2M275 122h1M297 122h2M16 123h4M83 123h4M105 123h3M111 123h5M175 123h4M233 123h2M243 123h1M303 123h1M336 123h2M15 124h3M47 124h3M111 124h2M179 124h1M207 124h1M271 124h1M303 124h3M335 124h3M17 125h1M49 125h1M209 125h1M239 125h1M273 125h1M305 125h1M337 125h1M241 126h1M23 147h1M151 147h1M105 148h1M119 148h1M19 149h4M104 149h3M147 149h4M10 150h1M19 150h1M53 150h2M104 150h3M115 150h4M138 150h1M147 150h1M10 151h2M19 151h4M42 151h1M74 151h2M104 151h3M115 151h1M138 151h2M147 151h4M10 152h3M42 152h3M51 152h4M73 152h3M85 152h2M106 152h2M115 152h4M138 152h3M11 153h2M42 153h3M74 153h3M107 153h2M139 153h2M43 154h2M75 154h2M83 154h4M16 155h4M112 155h2M144 155h4M15 156h3M48 156h4M111 156h3M143 156h3M17 157h1M47 157h3M79 157h3M113 157h1M145 157h1M22 182h1M54 182h1M86 182h1M118 182h1M150 182h1M182 182h1M18 183h1M23 183h1M50 183h1M55 183h1M82 183h1M87 183h1M114 183h1M119 183h1M146 183h1M151 183h1M178 183h1M183 183h1M23 184h1M55 184h1M87 184h1M119 184h1M151 184h1M183 184h1M22 185h2M46 185h3M54 185h2M77 185h4M86 185h2M109 185h4M118 185h2M141 185h3M150 185h2M182 185h2M13 186h3M22 186h2M46 186h2M54 186h2M78 186h2M86 186h2M110 186h2M118 186h2M141 186h3M150 186h2M173 186h3M182 186h2M14 187h1M20 187h5M52 187h5M84 187h5M116 187h5M142 187h1M148 187h5M174 187h1M180 187h5M10 188h2M42 188h2M74 188h2M106 188h2M138 188h2M170 188h2M10 189h2M42 189h2M74 189h2M106 189h2M138 189h2M170 189h2M10 190h2M17 190h1M21 190h2M42 190h2M49 190h1M53 190h2M74 190h2M81 190h1M85 190h2M106 190h2M113 190h1M117 190h2M138 190h2M145 190h1M149 190h2M170 190h2M177 190h1M181 190h2M23 211h1M19 213h4M10 214h1M19 214h1M53 214h2M10 215h2M19 215h4M42 215h1M74 215h2M10 216h3M42 216h3M51 216h4M73 216h3M85 216h2M11 217h2M42 217h3M74 217h3M117 217h2M149 217h2M181 217h2M213 217h2M43 218h2M75 218h2M83 218h4M105 218h2M16 219h4M105 219h3M115 219h4M136 219h3M147 219h4M179 219h4M211 219h4M15 220h3M48 220h4M106 220h1M136 220h3M168 220h3M201 220h2M17 221h1M47 221h3M79 221h3M111 221h1M143 221h1M168 221h1M175 221h1M200 221h1M207 221h1M111 222h5M143 222h5M175 222h5M207 222h5"
     id="path39" />
  <path
     stroke="#b8b8b8"
     d="M7 21h1M41 21h1M167 21h1M201 21h1M7 22h1M40 22h1M72 22h1M167 22h1M200 22h1M232 22h1M8 23h1M71 23h1M168 23h1M231 23h1M16 24h2M48 24h2M80 24h2M112 24h2M144 24h2M176 24h2M208 24h2M240 24h2M272 24h2M304 24h2M18 25h2M50 25h2M82 25h2M114 25h2M135 25h2M146 25h2M178 25h2M210 25h2M242 25h2M274 25h2M295 25h2M306 25h2M101 26h1M135 26h2M261 26h1M295 26h2M135 27h1M295 27h1M19 28h2M51 28h2M83 28h2M115 28h2M147 28h2M179 28h2M211 28h2M243 28h2M275 28h2M307 28h2M7 53h1M41 53h1M167 53h1M201 53h1M295 53h1M329 53h1M7 54h1M40 54h1M72 54h1M167 54h1M200 54h1M232 54h1M295 54h1M328 54h1M360 54h1M8 55h1M71 55h1M168 55h1M231 55h1M296 55h1M359 55h1M16 56h2M49 56h2M81 56h3M112 56h3M144 56h3M176 56h3M208 56h3M240 56h3M272 56h3M304 56h3M337 56h3M369 56h2M400 56h2M432 56h2M18 57h2M50 57h1M82 57h3M114 57h2M135 57h2M146 57h2M178 57h2M210 57h2M242 57h2M263 57h2M274 57h2M306 57h2M338 57h3M370 57h1M402 57h2M423 57h2M434 57h2M101 58h1M135 58h2M263 58h2M389 58h1M423 58h2M135 59h1M263 59h1M423 59h1M19 60h2M51 60h2M83 60h2M115 60h2M147 60h2M179 60h2M211 60h2M243 60h2M275 60h2M307 60h2M339 60h2M371 60h2M403 60h2M435 60h2M41 84h1M72 84h1M200 84h2M8 85h1M40 85h1M71 85h1M231 85h2M8 86h1M80 86h2M208 86h2M232 86h1M8 87h1M48 87h2M82 87h2M102 87h1M112 87h2M167 87h2M176 87h2M210 87h2M240 87h2M16 88h2M50 88h2M102 88h1M114 88h2M134 88h1M167 88h1M178 88h2M242 88h2M18 89h2M135 89h1M144 89h2M83 90h2M136 90h1M146 90h2M212 90h1M51 91h2M115 91h2M180 91h1M244 91h1M19 92h2M147 93h2M7 117h1M41 117h1M144 117h2M201 117h1M263 117h1M327 117h1M7 118h1M40 118h1M72 118h1M146 118h2M166 118h1M200 118h1M233 118h1M263 118h1M295 118h1M327 118h1M8 119h1M71 119h1M112 119h2M232 119h1M263 119h1M295 119h1M328 119h1M16 120h2M114 120h2M133 120h1M295 120h1M18 121h2M176 121h2M336 121h2M48 122h2M304 122h2M338 122h2M50 123h2M208 123h2M272 123h2M306 123h2M19 124h2M80 124h2M101 124h1M210 124h2M240 124h2M274 124h2M339 124h2M51 125h2M82 125h2M242 125h2M307 125h1M101 148h3M134 148h2M7 149h1M102 149h2M135 149h1M7 150h1M39 150h1M71 150h1M103 150h1M135 150h1M8 151h1M39 151h1M71 151h1M136 151h1M16 152h2M40 152h1M71 152h2M144 152h2M18 153h2M48 153h2M112 153h2M146 153h2M50 154h2M114 154h2M80 155h2M19 156h2M82 156h2M115 156h2M147 156h2M51 157h2M16 188h3M48 188h3M80 188h3M112 188h3M144 188h3M176 188h3M12 190h1M44 190h1M76 190h1M108 190h1M140 190h1M172 190h1M7 213h1M7 214h1M39 214h1M71 214h1M8 215h1M39 215h1M71 215h1M16 216h2M40 216h1M71 216h2M103 216h1M18 217h2M48 217h2M103 217h1M134 217h1M50 218h2M103 218h2M134 218h1M80 219h2M134 219h2M165 219h2M19 220h2M82 220h2M112 220h2M144 220h2M166 220h2M176 220h2M208 220h2M51 221h2M198 221h1M197 222h3"
     id="path41" />
  <path
     stroke="#3b3b39"
     d="M12 30h1M14 30h1M44 30h1M46 30h1M76 30h1M78 30h1M108 30h1M110 30h1M140 30h1M142 30h1M172 30h1M174 30h1M204 30h1M206 30h1M236 30h1M238 30h1M268 30h1M270 30h1M300 30h1M302 30h1M12 62h1M14 62h1M44 62h1M46 62h1M76 62h1M78 62h1M108 62h1M110 62h1M140 62h1M142 62h1M172 62h1M174 62h1M204 62h1M206 62h1M236 62h1M238 62h1M268 62h1M270 62h1M300 62h1M302 62h1M332 62h1M334 62h1M364 62h1M366 62h1M396 62h1M398 62h1M428 62h1M430 62h1M202 90h1M170 91h1M234 91h1M77 92h1M207 92h1M45 93h1M109 93h1M175 93h1M239 93h1M12 94h1M14 94h1M140 94h1M142 94h1M139 120h1M171 122h1M107 125h1M12 126h1M14 126h1M44 126h1M46 126h1M76 126h1M78 126h1M203 126h1M205 126h1M235 126h1M267 126h1M269 126h1M299 126h1M301 126h1M332 126h1M334 126h1M12 158h1M14 158h1M44 158h1M46 158h1M75 158h1M77 158h1M108 158h1M110 158h1M140 158h1M142 158h1M12 222h1M14 222h1M44 222h1M46 222h1M75 222h1M77 222h1M105 222h1M137 222h1M169 222h1M201 222h1"
     id="path43" />
  <path
     stroke="#4f4f4e"
     d="M17 30h1M21 30h1M49 30h1M53 30h1M81 30h1M85 30h1M113 30h1M117 30h1M145 30h1M149 30h1M177 30h1M181 30h1M209 30h1M213 30h1M241 30h1M245 30h1M273 30h1M277 30h1M305 30h1M309 30h1M17 62h1M21 62h1M49 62h1M53 62h1M81 62h1M85 62h1M113 62h1M117 62h1M145 62h1M149 62h1M177 62h1M181 62h1M209 62h1M213 62h1M241 62h1M245 62h1M273 62h1M277 62h1M305 62h1M309 62h1M337 62h1M341 62h1M369 62h1M373 62h1M401 62h1M405 62h1M433 62h1M437 62h1M79 91h1M86 91h1M211 91h1M47 92h1M54 92h1M111 92h1M118 92h1M178 92h1M242 92h1M17 94h1M21 94h1M145 94h1M149 94h1M148 120h1M151 120h1M116 123h1M119 123h1M180 124h1M183 124h1M17 126h1M21 126h1M49 126h1M53 126h1M81 126h1M211 126h1M215 126h1M275 126h1M279 126h1M307 126h1M311 126h1M337 126h1M341 126h1M17 158h1M21 158h1M49 158h1M53 158h1M82 158h1M86 158h1M113 158h1M117 158h1M145 158h1M149 158h1M18 190h1M20 190h1M50 190h1M52 190h1M82 190h1M84 190h1M114 190h1M116 190h1M146 190h1M148 190h1M178 190h1M180 190h1M17 222h1M21 222h1M49 222h1M53 222h1M82 222h1M86 222h1M116 222h1M148 222h1M180 222h1M212 222h1"
     id="path45" />
</svg>
